<svg width="192" height="130" viewBox="0 0 192 130" fill="none" xmlns="http://www.w3.org/2000/svg">
<path d="M116.162 31.109L141.602 24.2554L146.822 41.4882L120.365 48.1442L116.162 31.109Z" fill="#455A64"/>
<path d="M120.365 48.1442C120.332 48.1286 121.734 45.4792 123.493 42.2318C125.252 38.9844 126.705 36.3662 126.739 36.3818C126.773 36.3974 125.371 39.0468 123.612 42.2968C121.853 45.5468 120.399 48.1624 120.365 48.1442Z" fill="#263238"/>
<path d="M146.822 41.4881C146.801 41.5193 144.235 39.8345 141.105 37.7259C137.975 35.6173 135.446 33.8831 135.466 33.8519C135.487 33.8207 138.053 35.5029 141.18 37.6141C144.308 39.7253 146.843 41.4569 146.822 41.4881Z" fill="#263238"/>
<path d="M116.162 31.109C116.191 31.1182 116.22 31.1295 116.247 31.1428L116.491 31.2572L117.417 31.707L120.821 33.3788L132.021 38.9428L132.158 39.0104L132.07 39.0338L138.795 28.5636C139.657 27.235 140.347 26.156 140.841 25.4046L141.403 24.5492L141.553 24.3282C141.568 24.3021 141.587 24.2778 141.607 24.2554C141.594 24.2833 141.58 24.3103 141.563 24.336L141.426 24.5648L140.885 25.4332L138.876 28.6156L132.179 39.1066L132.148 39.1586L132.093 39.13L131.956 39.0624L120.771 33.4646L117.388 31.7538L116.472 31.2806L116.234 31.1558C116.209 31.1431 116.184 31.1274 116.162 31.109Z" fill="#263238"/>
<path d="M28.4042 38.3318L53.3681 40.8409L52.2429 57.9619L26.4409 54.9355L28.4042 38.3318Z" fill="#455A64"/>
<path d="M26.4409 54.9354C26.4151 54.9068 28.5491 53.0218 31.2056 50.7234C33.8621 48.425 36.0375 46.5842 36.0607 46.6128C36.084 46.6414 33.9526 48.5264 31.2935 50.8248C28.6344 53.1232 26.4642 54.964 26.4409 54.9354Z" fill="#263238"/>
<path d="M52.2507 57.9618C52.2222 57.9852 50.5047 55.6218 48.4172 52.676C46.3298 49.7302 44.664 47.333 44.6924 47.3122C44.7209 47.2914 46.441 49.6522 48.5285 52.598C50.6159 55.5438 52.274 57.941 52.2507 57.9618Z" fill="#263238"/>
<path d="M28.4042 38.3318C28.4042 38.3318 28.4275 38.3501 28.4688 38.3917L28.6473 38.5737L29.325 39.2887L31.7953 41.9303L39.9123 50.6793L40.0105 50.7859H39.9226L49.4183 43.7347L52.3024 41.6001L53.0784 41.0307L53.2853 40.8851C53.3074 40.8665 53.3318 40.8508 53.3577 40.8383C53.3577 40.8383 53.337 40.859 53.2931 40.8954L53.0939 41.0515L52.3179 41.6443C51.635 42.1643 50.6624 42.8923 49.4726 43.7997L40.0002 50.8847L39.9511 50.9211L39.9097 50.8769L39.8114 50.7703L31.7229 41.9926L29.2836 39.3225L28.624 38.5892L28.4559 38.3968C28.437 38.3766 28.4197 38.3549 28.4042 38.3318Z" fill="#263238"/>
<path d="M170.942 64.1238C170.942 64.1238 168.702 62.6626 166.028 68.042C163.353 73.4214 162.352 76.518 162.352 76.518C162.352 76.518 161.643 77.6464 160.87 76.9184C160.097 76.1904 159.028 74.1208 157.73 74.5056C156.38 74.906 155.948 76.427 156.224 78.6526C156.501 80.8782 156.928 85.7792 156.964 86.2238C157 86.6684 156.757 87.3028 156.152 86.892C155.547 86.4812 152.049 82.6332 150.332 84.409C148.614 86.1848 150.399 92.261 150.591 92.9292C150.782 93.5974 150.645 93.8859 150.332 94.0523C150.019 94.2187 148.964 92.8173 147.924 91.7617C146.884 90.7062 145.497 89.6817 144.592 90.7789C143.687 91.8762 143.431 96.4599 147.82 103.847L150.076 107.136L154.059 106.876C162.554 105.804 165.981 102.788 166.294 101.39C166.607 99.9907 164.936 99.528 163.47 99.3537C162.003 99.1796 160.254 99.2107 160.192 98.8571C160.13 98.5035 160.278 98.2253 160.914 97.9576C161.55 97.6898 167.412 95.3576 167.748 92.911C168.084 90.4644 162.913 90.0509 162.22 89.8273C161.527 89.6037 161.881 89.0136 162.243 88.7744C162.606 88.5352 166.721 85.8519 168.635 84.7001C170.549 83.5483 171.48 82.2718 170.963 80.9562C170.466 79.69 168.185 80.119 167.137 79.9526C166.09 79.7862 166.54 78.533 166.54 78.533C166.54 78.533 168.351 75.8316 170.937 70.4028C173.524 64.974 170.917 64.0926 170.917 64.0926" fill="#0076FF"/>
<path d="M168.539 68.9363C168.526 68.9761 168.51 69.0152 168.493 69.0533L168.34 69.3913L167.743 70.6783C167.225 71.7963 166.449 73.4109 165.503 75.3999C163.599 79.3779 160.919 84.8509 157.942 90.8881C154.965 96.9253 152.272 102.393 150.345 106.361C149.385 108.339 148.609 109.946 148.069 111.062C147.81 111.61 147.593 112.042 147.448 112.338L147.282 112.668L147.223 112.78C147.236 112.74 147.252 112.701 147.269 112.663L147.422 112.328L148.019 111.028C148.537 109.91 149.313 108.298 150.259 106.309C152.163 102.328 154.843 96.8551 157.823 90.8179C160.803 84.7807 163.49 79.3155 165.417 75.3479L167.696 70.6445L168.317 69.3679L168.48 69.0377L168.539 68.9363Z" fill="#263238"/>
<path d="M159.108 77.4644C159.155 77.5462 159.19 77.6336 159.215 77.7244C159.274 77.9012 159.352 78.156 159.445 78.4758C159.631 79.1128 159.866 79.9994 160.107 80.9822C160.347 81.965 160.549 82.8256 160.71 83.5016C160.785 83.8006 160.847 84.0554 160.896 84.2634C160.928 84.3547 160.947 84.4501 160.953 84.5468C160.908 84.4644 160.872 84.3772 160.847 84.2868C160.787 84.1126 160.71 83.8552 160.619 83.5354C160.438 82.8958 160.216 82.0066 159.975 81.0238C159.734 80.041 159.52 79.1856 159.354 78.5096C159.279 78.2106 159.215 77.9584 159.163 77.7504C159.134 77.6575 159.115 77.5615 159.108 77.4644Z" fill="#263238"/>
<path d="M161.317 84.6248C161.317 84.5884 163.105 84.0216 165.332 83.3586C167.559 82.6956 169.372 82.186 169.383 82.2224C169.393 82.2588 167.595 82.8256 165.368 83.4886C163.141 84.1516 161.328 84.6612 161.317 84.6248Z" fill="#263238"/>
<path d="M156.328 93.6884C156.425 93.67 156.524 93.6639 156.623 93.6702H157.419C158.092 93.6702 159.023 93.6546 160.047 93.6078C161.072 93.561 162 93.4856 162.67 93.4284L163.467 93.3608C163.564 93.3499 163.662 93.3499 163.759 93.3608C163.667 93.3941 163.57 93.4151 163.472 93.4232C163.286 93.4544 163.017 93.4934 162.681 93.535C162.011 93.6182 161.082 93.7066 160.055 93.7534C159.028 93.8002 158.092 93.7976 157.419 93.7768C157.081 93.7768 156.809 93.7534 156.62 93.7404C156.521 93.7336 156.423 93.7162 156.328 93.6884Z" fill="#263238"/>
<path d="M152.913 87.6537C152.975 87.7204 153.028 87.7947 153.071 87.8747C153.167 88.0203 153.301 88.2361 153.462 88.5039C153.788 89.0369 154.238 89.7779 154.711 90.6021C155.184 91.4263 155.619 92.1621 155.924 92.7211L156.279 93.3711C156.326 93.4489 156.364 93.5318 156.392 93.6181C156.329 93.5521 156.275 93.4778 156.232 93.3971C156.136 93.2515 156.004 93.0357 155.842 92.7705C155.516 92.2375 155.066 91.4939 154.595 90.6697C154.124 89.8455 153.684 89.0967 153.382 88.5507C153.229 88.2777 153.107 88.0567 153.027 87.9007C152.976 87.8251 152.938 87.7417 152.913 87.6537Z" fill="#263238"/>
<path d="M147.497 95.0923C147.572 95.18 147.639 95.2749 147.696 95.3757L148.213 96.1817C148.635 96.8629 149.207 97.8093 149.833 98.8571C150.459 99.9049 151.02 100.862 151.418 101.556C151.605 101.889 151.762 102.164 151.886 102.383C151.948 102.482 151.999 102.586 152.042 102.695C151.964 102.607 151.897 102.511 151.84 102.409L151.32 101.605C150.898 100.924 150.324 99.9777 149.698 98.9273C149.072 97.8769 148.513 96.9227 148.115 96.2285L147.647 95.4043C147.586 95.3058 147.536 95.2013 147.497 95.0923Z" fill="#263238"/>
<path d="M151.972 102.482C152.098 102.457 152.226 102.444 152.355 102.44L153.366 102.396C154.22 102.359 155.397 102.305 156.698 102.209C157.999 102.112 159.171 101.995 160.022 101.907L161.028 101.803C161.15 101.781 161.274 101.773 161.398 101.78C161.279 101.815 161.158 101.84 161.035 101.855C160.798 101.894 160.456 101.946 160.032 102.001C159.183 102.115 158.009 102.248 156.708 102.344C155.407 102.44 154.225 102.479 153.369 102.492C152.942 102.492 152.593 102.492 152.355 102.492C152.227 102.503 152.099 102.5 151.972 102.482Z" fill="#263238"/>
<path d="M40.8693 99.6891C39.6381 99.8581 38.5413 100.55 37.6437 101.423C37.1678 101.894 36.7177 102.463 36.635 103.118C36.5522 103.774 36.9842 104.548 37.6489 104.6C38.0495 104.596 38.4354 104.448 38.7379 104.184C39.5139 103.62 40.2899 102.869 41.2521 102.9C41.8005 102.918 42.3515 103.202 42.874 103.033C43.1253 102.933 43.3374 102.754 43.4776 102.522C43.6177 102.29 43.6783 102.018 43.65 101.748C43.5755 101.208 43.2977 100.718 42.874 100.378C42.6151 100.116 42.2996 99.9173 41.9519 99.7978C41.6041 99.6783 41.2337 99.6411 40.8693 99.6891Z" fill="#0076FF"/>
<g opacity="0.3">
<path opacity="0.3" d="M40.8693 99.6891C39.6381 99.8581 38.5413 100.55 37.6437 101.423C37.1678 101.894 36.7177 102.463 36.635 103.118C36.5522 103.774 36.9842 104.548 37.6489 104.6C38.0495 104.596 38.4354 104.448 38.7379 104.184C39.5139 103.62 40.2899 102.869 41.2521 102.9C41.8005 102.918 42.3515 103.202 42.874 103.033C43.1253 102.933 43.3374 102.754 43.4776 102.522C43.6177 102.29 43.6783 102.018 43.65 101.748C43.5755 101.208 43.2977 100.718 42.874 100.378C42.6151 100.116 42.2996 99.9173 41.9519 99.7978C41.6041 99.6783 41.2337 99.6411 40.8693 99.6891Z" fill="black"/>
</g>
<path d="M40.1399 94.2109C40.1399 95.3939 38.8828 95.8879 38.0473 95.7553C37.2118 95.6227 36.5108 95.0689 35.8512 94.5359C34.3458 93.3139 32.7834 92.0217 32.0229 90.2329C31.7711 89.706 31.6691 89.1193 31.7281 88.5377C31.762 88.2482 31.8705 87.9727 32.0429 87.7383C32.2153 87.5039 32.4456 87.3188 32.711 87.2013C33.3551 86.9647 34.0638 87.2611 34.6613 87.5965C36.4242 88.5881 37.9443 89.9632 39.1104 91.6213C39.6536 92.4013 40.1295 93.2671 40.1451 94.2213" fill="#0076FF"/>
<g opacity="0.3">
<path opacity="0.3" d="M40.1399 94.2109C40.1399 95.3939 38.8828 95.8879 38.0473 95.7553C37.2118 95.6227 36.5108 95.0689 35.8512 94.5359C34.3458 93.3139 32.7834 92.0217 32.0229 90.2329C31.7711 89.706 31.6691 89.1193 31.7281 88.5377C31.762 88.2482 31.8705 87.9727 32.0429 87.7383C32.2153 87.5039 32.4456 87.3188 32.711 87.2013C33.3551 86.9647 34.0638 87.2611 34.6613 87.5965C36.4242 88.5881 37.9443 89.9632 39.1104 91.6213C39.6536 92.4013 40.1295 93.2671 40.1451 94.2213" fill="white"/>
</g>
<path d="M42.4524 94.2786C41.353 93.9874 40.5098 93.0228 40.1502 91.9386C39.834 90.8355 39.8251 89.6664 40.1244 88.5586C40.4316 87.2495 40.9895 86.0132 41.7669 84.9186C42.054 84.4748 42.4324 84.098 42.8766 83.8136C43.1008 83.6747 43.3553 83.5928 43.6181 83.5752C43.8809 83.5575 44.144 83.6045 44.3846 83.7122C45.0753 84.0684 45.2693 84.955 45.3546 85.7298C45.5041 87.0971 45.5465 88.4741 45.4814 89.8482C45.4296 90.9532 45.29 92.105 44.6743 93.0202C44.0587 93.9354 43.1585 94.5152 42.3023 94.2448" fill="#0076FF"/>
<path d="M48.5336 106.155C48.4218 106.058 48.3204 105.949 48.2309 105.83L47.4549 104.913C47.0681 104.462 46.658 104.033 46.2263 103.626C45.693 103.135 45.1212 102.688 44.5165 102.289C43.9155 101.889 43.2616 101.576 42.5739 101.358C42.0139 101.182 41.4219 101.133 40.8408 101.215C40.4502 101.276 40.0715 101.398 39.7182 101.577C39.5945 101.657 39.4627 101.724 39.3251 101.777C39.4359 101.678 39.5563 101.591 39.6846 101.517C40.0357 101.308 40.4212 101.164 40.8227 101.091C41.4224 100.988 42.0375 101.025 42.6205 101.2C43.3274 101.413 43.9993 101.729 44.6148 102.138C45.2292 102.543 45.8074 103 46.3427 103.506C46.7722 103.923 47.1765 104.366 47.5532 104.832C47.8766 105.23 48.1223 105.56 48.293 105.789C48.3861 105.902 48.4667 106.025 48.5336 106.155Z" fill="#263238"/>
<path d="M47.9387 105.446C47.8904 105.397 47.8478 105.343 47.8119 105.284L47.4783 104.806C47.1911 104.39 46.7695 103.789 46.2315 103.064C45.158 101.605 43.6008 99.645 41.7824 97.5676C39.964 95.4902 38.2206 93.6936 36.9065 92.4508C36.5832 92.1362 36.2832 91.858 36.0141 91.6188C35.7451 91.3796 35.5227 91.1664 35.3313 91.0026L34.8941 90.6152C34.8407 90.5731 34.7921 90.5251 34.7493 90.4722C34.8102 90.5024 34.8668 90.5409 34.9174 90.5866L35.3752 90.948C35.5744 91.104 35.8098 91.3068 36.0814 91.5434C36.353 91.78 36.6634 92.0478 36.9945 92.3572C38.7221 93.9636 40.3627 95.6622 41.9092 97.4454C43.7198 99.5254 45.2718 101.507 46.322 102.986C46.8394 103.724 47.2558 104.338 47.5274 104.767L47.8326 105.266C47.8746 105.322 47.9101 105.382 47.9387 105.446Z" fill="#263238"/>
<path d="M45.1606 101.491C45.0334 101.332 44.9184 101.163 44.8166 100.987C44.6097 100.654 44.3303 100.157 44.0225 99.5254C43.6677 98.7834 43.3542 98.0221 43.0835 97.2452C42.7465 96.294 42.4768 95.32 42.2765 94.3306C41.8725 92.535 41.7963 90.6806 42.0515 88.8576C42.0974 88.5432 42.1639 88.2323 42.2506 87.9268C42.2843 87.7916 42.3101 87.6668 42.3489 87.5498L42.4627 87.243C42.5234 87.0487 42.6004 86.8599 42.693 86.6788C42.7395 86.6944 42.3774 87.4952 42.1756 88.8758C41.9611 90.6845 42.0538 92.5167 42.4498 94.2942C42.6455 95.2747 42.9048 96.2414 43.2258 97.188C43.4869 97.9635 43.7864 98.7254 44.1234 99.4708C44.4131 100.108 44.6743 100.61 44.8606 100.953C44.9769 101.122 45.0774 101.303 45.1606 101.491Z" fill="#263238"/>
<path d="M147.476 44.811H51.0996C49.0182 44.811 47.3308 46.507 47.3308 48.5992V110.094C47.3308 112.187 49.0182 113.883 51.0996 113.883H147.476C149.558 113.883 151.245 112.187 151.245 110.094V48.5992C151.245 46.507 149.558 44.811 147.476 44.811Z" fill="#263238"/>
<path d="M42.9853 108.774H155.567V110.191C155.567 111.418 155.082 112.595 154.219 113.463C153.355 114.331 152.184 114.819 150.963 114.819H47.5947C46.9901 114.819 46.3913 114.699 45.8327 114.466C45.2741 114.234 44.7665 113.893 44.339 113.463C43.9114 113.033 43.5723 112.523 43.3409 111.962C43.1095 111.4 42.9904 110.798 42.9904 110.191V108.774H42.9853Z" fill="#263238"/>
<path d="M148.164 47.554H50.1193V105.885H148.164V47.554Z" fill="#455A64"/>
<path d="M89.0434 108.774L90.4402 111.007H110.099L111.397 108.774H89.0434Z" fill="#455A64"/>
<path d="M145.5 49.53H52.9853C52.5182 49.53 52.1395 49.9106 52.1395 50.3802V104.848C52.1395 105.317 52.5182 105.698 52.9853 105.698H145.5C145.967 105.698 146.346 105.317 146.346 104.848V50.3802C146.346 49.9106 145.967 49.53 145.5 49.53Z" fill="#EBEBEB"/>
<path d="M146.346 53.6458H52.1395V105.698H146.346V53.6458Z" fill="#FAFAFA"/>
<path d="M59.8659 51.6983C59.8659 51.848 59.8217 51.9942 59.739 52.1187C59.6563 52.2431 59.5387 52.3401 59.4012 52.3973C59.2636 52.4546 59.1123 52.4696 58.9663 52.4404C58.8203 52.4112 58.6861 52.3391 58.5809 52.2333C58.4756 52.1275 58.4039 51.9927 58.3749 51.8459C58.3458 51.6992 58.3607 51.547 58.4177 51.4088C58.4747 51.2705 58.5712 51.1524 58.6949 51.0692C58.8187 50.9861 58.9643 50.9417 59.1131 50.9417C59.3128 50.9417 59.5042 51.0214 59.6454 51.1633C59.7866 51.3052 59.8659 51.4977 59.8659 51.6983Z" fill="#455A64"/>
<path d="M55.3055 51.6983C55.3055 51.848 55.2614 51.9942 55.1787 52.1187C55.096 52.2431 54.9784 52.3401 54.8409 52.3973C54.7033 52.4546 54.552 52.4696 54.406 52.4404C54.26 52.4112 54.1258 52.3391 54.0206 52.2333C53.9153 52.1275 53.8436 51.9927 53.8146 51.8459C53.7855 51.6992 53.8004 51.547 53.8574 51.4088C53.9144 51.2705 54.0108 51.1524 54.1346 51.0692C54.2584 50.9861 54.4039 50.9417 54.5528 50.9417C54.7525 50.9417 54.9439 51.0214 55.0851 51.1633C55.2262 51.3052 55.3055 51.4977 55.3055 51.6983Z" fill="#455A64"/>
<path d="M57.4939 51.6983C57.4939 51.8481 57.4497 51.9945 57.3668 52.1189C57.284 52.2434 57.1663 52.3404 57.0286 52.3976C56.8909 52.4548 56.7394 52.4696 56.5934 52.4402C56.4473 52.4108 56.3132 52.3385 56.208 52.2324C56.1028 52.1263 56.0313 51.9913 56.0026 51.8443C55.9738 51.6974 55.9891 51.5452 56.0465 51.407C56.1038 51.2688 56.2007 51.1508 56.3249 51.068C56.449 50.9851 56.5948 50.9412 56.7437 50.9417C56.8425 50.9417 56.9402 50.9613 57.0314 50.9994C57.1226 51.0374 57.2054 51.0932 57.2751 51.1635C57.3448 51.2338 57.4 51.3172 57.4375 51.409C57.4751 51.5008 57.4942 51.5991 57.4939 51.6983Z" fill="#455A64"/>
<path d="M150.353 108.774C150.353 108.81 127.287 108.841 98.8443 108.841C70.4013 108.841 47.336 108.81 47.336 108.774C47.336 108.737 70.3962 108.706 98.8495 108.706C127.303 108.706 150.353 108.737 150.353 108.774Z" fill="#455A64"/>
<path d="M70.7066 87.2144C70.6841 86.5818 70.7057 85.9485 70.7712 85.319C70.7901 84.6858 70.8558 84.0548 70.9678 83.4314C70.9903 84.0648 70.9687 84.699 70.9031 85.3294C70.8826 85.9616 70.8169 86.5916 70.7066 87.2144Z" fill="#FAFAFA"/>
<path d="M136.788 82.1601C131.496 73.9363 126.002 64.7089 126.002 64.7089C121.222 58.8485 117.36 56.7997 109.825 56.4825L95.1661 56.4201C92.2845 56.5839 85.5954 55.0915 79.3874 64.0407L79.3589 63.9965C79.3589 63.9965 73.8623 73.2239 68.5725 81.4503C62.6413 90.6725 66.1902 100.248 72.5276 100.807C78.9347 101.371 82.9078 101.543 85.0367 101.587L84.9358 105.716L118.922 105.661L118.575 101.036C121.985 101.036 131.423 101 132.818 100.825C139.132 100.053 142.719 91.3927 136.788 82.1601ZM85.5178 80.3401L85.3057 89.9237L79.3564 89.9419L85.5178 80.3401ZM119.219 90.6283L120.148 81.5283L126.002 90.6543L119.219 90.6283Z" fill="#0076FF"/>
<path d="M109.256 56.0508C109.262 56.1226 109.262 56.1948 109.256 56.2666C109.254 56.471 109.239 56.6751 109.212 56.8776C109.171 57.2002 109.11 57.5198 109.028 57.8344C108.913 58.25 108.766 58.6559 108.588 59.0486C108.116 60.0718 107.419 60.9741 106.55 61.6876C105.473 62.5581 104.153 63.0698 102.773 63.1514C101.391 63.2495 100.016 62.8837 98.8624 62.1114C97.9363 61.4705 97.1863 60.6048 96.6819 59.5946C96.3434 58.918 96.1188 58.1897 96.0171 57.4392C95.9873 57.236 95.9709 57.031 95.9679 56.8256C95.9611 56.7547 95.9611 56.6833 95.9679 56.6124C95.9826 56.6826 95.9912 56.754 95.9938 56.8256C95.9938 56.966 96.0274 57.1688 96.0688 57.4314C96.1894 58.1703 96.425 58.8854 96.7672 59.5504C97.2736 60.5389 98.0179 61.3844 98.9323 62.01C100.067 62.7567 101.413 63.1084 102.766 63.011C104.118 62.9311 105.413 62.4325 106.472 61.5836C107.332 60.8859 108.025 60.0038 108.5 59.0018C108.826 58.3279 109.049 57.6082 109.16 56.8672C109.193 56.6657 109.215 56.4627 109.227 56.2588C109.231 56.1888 109.24 56.1193 109.256 56.0508Z" fill="#263238"/>
<path d="M120.042 82.8178C120.003 82.8178 120.145 78.8814 120.358 74.0324C120.57 69.1834 120.771 65.26 120.797 65.26C120.823 65.26 120.694 69.1964 120.482 74.048C120.27 78.8996 120.078 82.8204 120.042 82.8178Z" fill="#263238"/>
<path d="M86.211 65.26C86.2228 65.312 86.228 65.3653 86.2265 65.4186V65.8684C86.2265 66.2584 86.2395 66.8226 86.2265 67.522C86.2265 68.9208 86.1903 70.85 86.092 72.982C85.9937 75.114 85.8515 77.038 85.7247 78.442C85.6626 79.1388 85.6057 79.7004 85.5592 80.0904C85.5385 80.2724 85.5204 80.4206 85.5048 80.535C85.5007 80.5877 85.492 80.6398 85.479 80.691C85.4722 80.6384 85.4722 80.585 85.479 80.5324C85.479 80.4154 85.4971 80.2724 85.5074 80.0852C85.5385 79.677 85.5799 79.118 85.629 78.4342C85.7325 77.0432 85.8592 75.1166 85.9575 72.9898C86.0558 70.863 86.105 68.9338 86.1334 67.5298C86.1334 66.8434 86.1541 66.2844 86.1619 65.8762C86.1619 65.6916 86.1619 65.5434 86.1748 65.4264C86.1825 65.3701 86.1946 65.3144 86.211 65.26Z" fill="#263238"/>
<path d="M117.321 100.695C117.306 100.632 117.298 100.568 117.295 100.503C117.295 100.365 117.264 100.178 117.241 99.9388C117.199 99.437 117.14 98.7272 117.065 97.838C116.922 96.0362 116.726 93.522 116.498 90.6282V90.5554H116.571L119.913 90.61L129.385 90.7842L132.256 90.8518L133.032 90.8778H133.234C133.257 90.8744 133.281 90.8744 133.304 90.8778C133.281 90.8817 133.257 90.8817 133.234 90.8778H133.032H132.256L129.385 90.8518L119.908 90.74L116.563 90.6828L116.628 90.6126C116.837 93.5064 117.018 96.0232 117.145 97.8276C117.202 98.7168 117.251 99.4292 117.282 99.931C117.298 100.17 117.308 100.357 117.316 100.495C117.322 100.562 117.323 100.629 117.321 100.695Z" fill="#263238"/>
<path d="M132.008 88.92C132.008 88.9434 131.641 88.92 131.056 88.9512C130.293 88.9946 129.538 89.1281 128.806 89.349C128.075 89.5767 127.374 89.8891 126.716 90.2798C126.211 90.5814 125.922 90.7998 125.909 90.7868C125.896 90.7738 125.971 90.7192 126.097 90.6126C126.278 90.4628 126.468 90.3247 126.666 90.1992C127.318 89.7764 128.025 89.4473 128.767 89.2216C129.508 88.995 130.276 88.8717 131.051 88.855C131.286 88.8506 131.521 88.8593 131.754 88.881C131.84 88.8831 131.925 88.8962 132.008 88.92Z" fill="#263238"/>
<path d="M86.9819 101.66C86.9779 101.64 86.9779 101.62 86.9819 101.6C86.9819 101.553 86.9819 101.496 87 101.426C87.0207 101.262 87.0491 101.041 87.0827 100.755C87.1629 100.162 87.2767 99.3201 87.4164 98.2749C87.7139 96.161 88.1226 93.2334 88.5882 89.921L88.6529 89.999L86.8422 89.973C83.0889 89.947 79.6875 90.0172 77.225 90.0042C75.9937 90.0042 74.9978 89.986 74.3098 89.9678L73.5183 89.9418H73.3113H73.2415C73.2646 89.9379 73.2882 89.9379 73.3113 89.9418H74.3098H77.225C79.6849 89.9288 83.0863 89.8456 86.8448 89.8716L88.6554 89.8976H88.7227V89.973C88.2416 93.2802 87.8148 96.213 87.507 98.319C87.3492 99.359 87.2224 100.204 87.1345 100.794C87.0879 101.078 87.0517 101.299 87.0258 101.46C87.0258 101.53 87.0051 101.587 86.9948 101.634C86.9845 101.681 86.9845 101.66 86.9819 101.66Z" fill="#263238"/>
<path d="M79.2115 90.0432C79.0227 89.9144 78.8492 89.7643 78.6942 89.596C78.3889 89.3022 77.9828 88.8784 77.5638 88.3844C77.1448 87.8904 76.7878 87.4198 76.555 87.0688C76.4145 86.8866 76.2956 86.6885 76.2006 86.4786C76.3595 86.6436 76.504 86.8219 76.6326 87.0116C76.8913 87.347 77.2508 87.7916 77.6673 88.2986C78.0837 88.8056 78.4743 89.219 78.764 89.5284C78.9269 89.6875 79.0766 89.8596 79.2115 90.0432Z" fill="#263238"/>
<path d="M94.4133 67.8288C94.0185 67.1925 93.6626 66.5326 93.3476 65.8528C92.993 65.1932 92.6769 64.5134 92.4009 63.817C92.7958 64.4532 93.1517 65.1131 93.4666 65.793C93.8225 66.4519 94.1386 67.1317 94.4133 67.8288Z" fill="#FAFAFA"/>
<path d="M108.963 67.6312C108.812 67.8311 108.638 68.0134 108.446 68.1746C107.566 68.9951 106.594 69.7097 105.549 70.304C105.338 70.4353 105.114 70.545 104.882 70.6316C105.077 70.4784 105.285 70.341 105.502 70.2208C105.888 69.9764 106.418 69.628 106.982 69.2146C107.546 68.8012 108.032 68.4008 108.381 68.1018C108.565 67.9323 108.759 67.7751 108.963 67.6312Z" fill="#FAFAFA"/>
<path d="M115.96 66.3598C115.432 65.7717 114.938 65.1536 114.481 64.5086C113.987 63.8915 113.528 63.2465 113.107 62.5768C113.635 63.1656 114.13 63.7836 114.589 64.428C115.083 65.0449 115.541 65.6899 115.96 66.3598Z" fill="#FAFAFA"/>
<path d="M115.479 75.4988C114.995 75.8396 114.487 76.1438 113.958 76.4088C113.45 76.7131 112.919 76.9781 112.37 77.2018C112.854 76.8594 113.363 76.5552 113.894 76.2918C114.401 75.9873 114.931 75.7222 115.479 75.4988Z" fill="#FAFAFA"/>
<path d="M125.565 76.2554C125.515 75.4295 125.51 74.6015 125.549 73.775C125.544 72.9475 125.584 72.1204 125.668 71.2972C125.717 72.1231 125.723 72.9511 125.684 73.7776C125.69 74.6051 125.65 75.4323 125.565 76.2554Z" fill="#FAFAFA"/>
<path d="M129.747 83.3482C128.865 83.4691 127.978 83.5455 127.088 83.577C125.616 83.6654 124.424 83.707 124.421 83.6706C125.303 83.5495 126.191 83.4732 127.08 83.4418C128.557 83.3534 129.745 83.3118 129.747 83.3482Z" fill="#FAFAFA"/>
<path d="M136.517 88.6106C136.393 87.7671 136.315 86.9173 136.284 86.0652C136.206 85.2156 136.174 84.3624 136.188 83.5094C136.308 84.3542 136.385 85.2046 136.418 86.0574C136.495 86.9062 136.528 87.7584 136.517 88.6106Z" fill="#FAFAFA"/>
<path d="M133.663 95.2146C133.068 95.8812 132.438 96.5164 131.778 97.1178C131.15 97.7531 130.491 98.3554 129.802 98.9222C129.776 98.8962 130.619 98.0434 131.685 97.019C132.75 95.9946 133.638 95.1886 133.663 95.2146Z" fill="#FAFAFA"/>
<path d="M122.406 97.3336C122.235 97.2922 122.072 97.2209 121.925 97.123C121.183 96.7059 120.548 96.1211 120.07 95.4148C119.958 95.2768 119.871 95.1202 119.812 94.952C120.173 95.4189 120.563 95.8618 120.981 96.278C121.432 96.6616 121.908 97.0142 122.406 97.3336Z" fill="#FAFAFA"/>
<path d="M92.8613 73.7438C92.3245 74.2974 91.7553 74.8183 91.1567 75.3038C90.5872 75.8214 89.9887 76.3058 89.3642 76.7546C89.9011 76.2011 90.4703 75.6801 91.0688 75.1946C91.6383 74.6771 92.2368 74.1927 92.8613 73.7438Z" fill="#FAFAFA"/>
<path d="M100.021 77.298C99.4495 76.6407 99.0888 75.825 98.9866 74.958C99.0254 74.958 99.1651 75.5118 99.4522 76.1566C99.7393 76.8014 100.055 77.2772 100.021 77.298Z" fill="#FAFAFA"/>
<path d="M87.4552 59.3242C87.4785 59.3554 86.5163 60.1744 85.3031 61.1442C84.09 62.114 83.0915 62.8992 83.0682 62.8706C83.0449 62.842 84.0072 62.0204 85.2203 61.0506C86.4335 60.0808 87.4293 59.2956 87.4552 59.3242Z" fill="#FAFAFA"/>
<path d="M82.4836 73.0002C82.4448 73.0132 82.1499 72.1448 81.6559 71.1334C81.1618 70.122 80.6626 69.355 80.6962 69.3316C80.8382 69.4742 80.9609 69.6351 81.061 69.81C81.3251 70.2162 81.5644 70.6382 81.7775 71.0736C81.9903 71.509 82.1743 71.9581 82.3284 72.4178C82.4049 72.6044 82.4571 72.8002 82.4836 73.0002Z" fill="#FAFAFA"/>
<path d="M80.422 78.7358C80.2193 78.8531 80.003 78.9448 79.778 79.0088C78.705 79.3715 77.5809 79.5576 76.4489 79.5601C76.215 79.5728 75.9804 79.5562 75.7505 79.5107C75.9811 79.4785 76.2136 79.4629 76.4463 79.4639C77.0059 79.4404 77.5638 79.3857 78.1173 79.3001C78.6683 79.2058 79.214 79.0826 79.7521 78.9308C79.9699 78.8479 80.1939 78.7827 80.422 78.7358Z" fill="#FAFAFA"/>
<path d="M74.9667 93.2073C74.2471 93.7421 73.5012 94.2402 72.7319 94.6997C71.4773 95.4797 70.4453 96.1115 70.4246 96.0803C71.1436 95.5439 71.8895 95.0449 72.6594 94.5853C73.405 94.0874 74.1751 93.6275 74.9667 93.2073Z" fill="#FAFAFA"/>
<path d="M82.0439 98.4568C82.0103 98.4698 81.4877 97.1074 80.8799 95.4148C80.272 93.7222 79.8038 92.339 79.8452 92.326C79.8866 92.313 80.4013 93.6754 81.0118 95.368C81.6223 97.0606 82.0801 98.4438 82.0439 98.4568Z" fill="#FAFAFA"/>
<path d="M89.6616 87.5343C89.3429 87.0002 89.0619 86.4441 88.821 85.8703C88.5398 85.3144 88.3003 84.7382 88.1044 84.1465C88.4232 84.6811 88.7033 85.2381 88.9425 85.8131C89.224 86.3683 89.4643 86.9436 89.6616 87.5343Z" fill="#FAFAFA"/>
<path d="M118.446 82.8152C118.394 83.017 118.322 83.213 118.231 83.4002C118.086 83.7564 117.885 84.2452 117.675 84.7912C117.466 85.3372 117.287 85.8312 117.158 86.1978C117.1 86.3981 117.023 86.5923 116.928 86.7776C116.95 86.5699 116.997 86.3656 117.067 86.1692C117.176 85.7974 117.342 85.293 117.554 84.7444C117.766 84.1958 117.98 83.7044 118.149 83.3612C118.227 83.1686 118.327 82.9855 118.446 82.8152Z" fill="#FAFAFA"/>
<path d="M94.2607 103.943C94.023 103.959 93.7845 103.959 93.5468 103.943C92.9758 103.936 92.4049 103.963 91.837 104.023C91.2691 104.086 90.7052 104.18 90.1479 104.307C89.9196 104.373 89.6871 104.423 89.4521 104.458C89.6649 104.347 89.8909 104.265 90.1247 104.213C90.6813 104.058 91.2497 103.949 91.8241 103.888C92.397 103.826 92.9742 103.812 93.5494 103.847C93.7896 103.849 94.0285 103.881 94.2607 103.943Z" fill="#FAFAFA"/>
<path d="M101.234 104.445C101.198 104.465 100.797 103.735 100.13 102.97C99.4625 102.206 98.8029 101.699 98.8366 101.67C99.0017 101.747 99.1543 101.849 99.2892 101.972C99.6338 102.245 99.9516 102.551 100.239 102.885C100.529 103.217 100.789 103.576 101.015 103.956C101.11 104.108 101.184 104.272 101.234 104.445Z" fill="#FAFAFA"/>
<path d="M108.938 102.401C108.435 102.785 107.906 103.133 107.354 103.441C106.827 103.786 106.275 104.094 105.704 104.361C106.205 103.976 106.733 103.629 107.285 103.321C107.813 102.975 108.365 102.668 108.938 102.401Z" fill="#FAFAFA"/>
<path d="M117.109 104.081C116.725 104.107 116.34 104.089 115.96 104.026C115.576 104.008 115.195 103.946 114.825 103.839C115.208 103.812 115.594 103.831 115.973 103.893C116.358 103.91 116.739 103.972 117.109 104.081Z" fill="#FAFAFA"/>
<path d="M107.23 38.3006C107.178 38.5202 107.191 38.7504 107.267 38.9627C107.343 39.1751 107.48 39.3602 107.66 39.4953C107.84 39.6303 108.056 39.7093 108.28 39.7225C108.504 39.7357 108.727 39.6824 108.922 39.5694C109.657 39.1404 109.698 38.0874 109.496 37.258C109.294 36.4286 108.966 35.5498 109.274 34.7542C109.507 34.1458 110.065 33.7376 110.489 33.2462C110.865 32.8181 111.136 32.3083 111.282 31.757C111.428 31.2057 111.444 30.6279 111.33 30.069C111.203 29.5131 110.926 29.0032 110.529 28.5957C110.132 28.1883 109.63 27.8991 109.08 27.7602C107.952 27.5002 106.604 27.9344 105.733 27.1726C105.099 26.6214 105.008 25.6646 104.507 24.9912C103.731 23.9512 102.194 23.8628 100.921 24.1124C99.6488 24.362 98.3606 24.8508 97.0854 24.609C96.0197 24.4062 95.1143 23.7172 94.103 23.309C92.9994 22.8799 91.7902 22.8073 90.6437 23.1011C89.4972 23.395 88.4703 24.0409 87.7059 24.9487C86.9416 25.8566 86.4778 26.9814 86.379 28.1666C86.2803 29.3518 86.5516 30.5384 87.1552 31.5614C87.5623 32.3147 88.221 32.8994 89.015 33.2124" fill="#263238"/>
<path d="M102.949 62.4624C101.243 62.6065 99.5502 62.0648 98.241 60.956C96.9318 59.8471 96.1134 58.2618 95.9653 56.5474C95.7895 54.509 95.6472 52.793 95.6472 52.793C95.6472 52.793 90.4739 52.3536 90.0471 47.2082C89.6203 42.0628 89.6849 30.8594 89.6849 30.8594V30.1808C95.4351 27.2012 102.375 28.1476 107.766 31.7408L107.83 32.8016L108.862 55.9C108.884 57.5424 108.286 59.1322 107.189 60.3496C106.092 61.5671 104.577 62.3219 102.949 62.4624Z" fill="#FFBE9D"/>
<path d="M92.1965 38.8987C92.336 38.8389 92.4542 38.7382 92.5358 38.6098C92.6173 38.4814 92.6584 38.3312 92.6537 38.179C92.6489 38.0267 92.5986 37.8794 92.5091 37.7564C92.4197 37.6334 92.2955 37.5403 92.1526 37.4895C91.9846 37.4271 91.7992 37.4327 91.6352 37.5051C91.495 37.5644 91.3759 37.665 91.2937 37.7938C91.2115 37.9225 91.17 38.0733 91.1748 38.2262C91.1795 38.379 91.2303 38.5269 91.3203 38.6502C91.4104 38.7735 91.5355 38.8665 91.6792 38.9169C91.8475 38.9784 92.033 38.9719 92.1965 38.8987Z" fill="#263238"/>
<path d="M90.3574 37.8222C90.4428 37.9054 90.9187 37.4816 91.6249 37.4296C92.331 37.3776 92.8665 37.7052 92.9389 37.6089C92.9751 37.5647 92.882 37.4113 92.6466 37.2553C92.3292 37.0563 91.9565 36.9655 91.5837 36.9965C91.2109 37.0274 90.8579 37.1783 90.5773 37.4269C90.3807 37.6168 90.316 37.7858 90.3574 37.8222Z" fill="#263238"/>
<path d="M98.8572 37.6791C98.7367 37.7648 98.6442 37.8845 98.5914 38.023C98.5387 38.1616 98.528 38.3128 98.5609 38.4574C98.5938 38.6021 98.6687 38.7336 98.7761 38.8354C98.8835 38.9372 99.0185 39.0046 99.1641 39.0292C99.3097 39.0537 99.4592 39.0342 99.5938 38.9731C99.7283 38.912 99.8417 38.8122 99.9197 38.6862C99.9977 38.5602 100.037 38.4138 100.032 38.2655C100.027 38.1172 99.9781 37.9738 99.8919 37.8533C99.7767 37.6936 99.6036 37.5858 99.4101 37.5532C99.2165 37.5206 99.0179 37.5658 98.8572 37.6791Z" fill="#263238"/>
<path d="M97.8743 37.9418C97.9597 38.025 98.4356 37.6012 99.1418 37.5492C99.8479 37.4972 100.383 37.8248 100.456 37.7286C100.489 37.6844 100.399 37.531 100.164 37.375C99.8461 37.176 99.4733 37.0852 99.1005 37.1161C98.7277 37.147 98.3748 37.298 98.0942 37.5466C97.8976 37.7364 97.8329 37.9054 97.8743 37.9418Z" fill="#263238"/>
<path d="M95.448 43.992C95.448 43.9374 95.0057 43.8828 94.2892 43.836C94.1056 43.836 93.9504 43.7996 93.9271 43.6956C93.906 43.5076 93.9383 43.3174 94.0202 43.147L94.478 41.6676C95.104 39.559 95.5334 37.8274 95.4325 37.7988C95.3316 37.7702 94.7419 39.4498 94.1133 41.5584C93.9659 42.0784 93.8236 42.5646 93.6865 43.0456C93.5825 43.2925 93.5652 43.5676 93.6374 43.8256C93.6688 43.8918 93.715 43.9497 93.7725 43.9948C93.8299 44.0399 93.897 44.071 93.9685 44.0856C94.0723 44.1063 94.1785 44.1124 94.284 44.1038C95.0083 44.0856 95.448 44.044 95.448 43.992Z" fill="#263238"/>
<path d="M97.7993 44.6134C98.5029 44.122 95.8515 45.8354 94.4107 45.8666C94.4107 45.8666 95.3264 47.1328 96.7646 46.4854C98.2597 45.812 97.7993 44.6134 97.7993 44.6134Z" fill="white"/>
<path d="M95.642 52.7176C95.642 52.7176 98.896 52.7566 102.186 50.3412C102.186 50.3412 100.867 54.158 95.7196 54.054L95.642 52.7176Z" fill="#EB996E"/>
<path d="M107.763 36.2414C107.874 36.1972 111.56 35.685 111.25 40.0686C110.94 44.4522 106.635 42.6842 106.635 42.5594C106.635 42.4346 107.763 36.2414 107.763 36.2414Z" fill="#FFBE9D"/>
<path d="M108.081 41.1164C108.102 41.1164 108.154 41.1762 108.278 41.2438C108.453 41.3326 108.656 41.3512 108.844 41.2958C109.318 41.1606 109.757 40.4508 109.835 39.663C109.874 39.2883 109.828 38.9096 109.701 38.5554C109.669 38.4152 109.605 38.2847 109.513 38.1751C109.42 38.0655 109.303 37.9801 109.17 37.9262C109.084 37.8971 108.991 37.899 108.907 37.9318C108.822 37.9646 108.751 38.0261 108.707 38.1056C108.64 38.2226 108.663 38.3136 108.64 38.3188C108.617 38.324 108.549 38.2382 108.599 38.0588C108.631 37.9528 108.699 37.8611 108.79 37.7988C108.916 37.7168 109.07 37.6879 109.217 37.7182C109.394 37.7661 109.555 37.8589 109.685 37.9878C109.816 38.1167 109.911 38.2773 109.962 38.454C110.121 38.8474 110.183 39.2741 110.14 39.6968C110.05 40.5782 109.54 41.3712 108.896 41.5168C108.777 41.5434 108.653 41.5423 108.534 41.5134C108.415 41.4846 108.305 41.4288 108.211 41.3504C108.081 41.223 108.066 41.1242 108.081 41.1164Z" fill="#EB996E"/>
<path d="M100.854 35.1702C100.74 35.3262 99.9721 34.9388 98.9685 34.9492C97.9648 34.9596 97.1914 35.3054 97.0802 35.1468C97.031 35.074 97.1733 34.8634 97.507 34.6554C97.9533 34.4001 98.4586 34.2674 98.9722 34.2706C99.4857 34.2738 99.9894 34.4128 100.433 34.6736C100.764 34.8868 100.903 35.1 100.854 35.1702Z" fill="#263238"/>
<path d="M92.8251 35.4693C92.7837 35.6539 92.2353 35.6825 91.5913 35.7033C90.9472 35.7241 90.3962 35.7163 90.3445 35.5343C90.2928 35.3523 90.8308 35.0429 91.5732 35.0143C92.3155 34.9857 92.8613 35.2925 92.8251 35.4693Z" fill="#263238"/>
<path d="M88.5985 33.0434C88.5985 33.0434 91.7491 34.4318 95.7015 32.2634C98.2882 30.8386 101.351 30.0768 102.052 30.5838C102.753 31.0908 102.993 33.826 105.642 34.5254C105.642 34.5254 105.642 39.754 107.711 39.4914C109.781 39.2288 108.182 31.187 108.182 31.187L103.314 27.9318L97.745 27.0868L91.6689 27.9968L88.2804 30.2406L88.5985 33.0434Z" fill="#263238"/>
<path d="M108.399 26.8008C108.009 26.8324 107.625 26.9199 107.259 27.0608C106.909 27.2383 106.586 27.4641 106.299 27.7316C106.286 27.7316 106.348 27.599 106.498 27.4352C106.698 27.2229 106.939 27.053 107.205 26.9356C107.472 26.8181 107.759 26.7555 108.05 26.7514C108.268 26.7462 108.402 26.78 108.399 26.8008Z" fill="#263238"/>
<path d="M106.19 24.8274C106.254 24.9759 106.293 25.1341 106.304 25.2954C106.366 25.6795 106.381 26.0698 106.348 26.4576C106.316 26.8473 106.216 27.2284 106.053 27.5834C105.995 27.7354 105.907 27.8742 105.795 27.9916C105.84 27.839 105.897 27.6903 105.965 27.547C106.101 27.1929 106.188 26.8221 106.224 26.4446C106.257 26.0657 106.257 25.6847 106.224 25.3058C106.195 25.1481 106.184 24.9876 106.19 24.8274Z" fill="#263238"/>
<path d="M105.986 27.0634C105.977 27.1099 105.966 27.1559 105.952 27.2012C105.915 27.3368 105.867 27.469 105.808 27.5964C105.61 28.021 105.322 28.397 104.965 28.6984C104.607 28.9997 104.189 29.219 103.738 29.341C103.286 29.4635 102.811 29.4725 102.354 29.367C101.829 29.247 101.341 28.9978 100.934 28.6416C100.474 28.2454 100.142 27.7205 99.9798 27.1336C99.892 26.8164 99.8726 26.484 99.9229 26.1586C99.976 25.814 100.138 25.4957 100.386 25.2512C100.513 25.1217 100.666 25.0199 100.834 24.9519C101.002 24.8839 101.183 24.8513 101.364 24.856C101.553 24.8701 101.736 24.9276 101.899 25.0241C102.062 25.1205 102.201 25.2534 102.305 25.4124C102.529 25.7322 102.637 26.1196 102.61 26.5096C102.566 26.9075 102.415 27.2857 102.173 27.6042C101.661 28.2482 100.98 28.7354 100.207 29.0108C99.4052 29.3153 98.5444 29.4318 97.6906 29.3514C96.7978 29.2689 95.9406 28.9594 95.1997 28.4518C94.8153 28.1896 94.4945 27.844 94.2607 27.4404C94.1443 27.2324 94.0655 27.0053 94.0279 26.7696C93.9946 26.5303 94.0069 26.2868 94.0641 26.052C94.1253 25.8155 94.2345 25.5942 94.3849 25.402C94.541 25.2083 94.748 25.0623 94.9824 24.9808C95.2214 24.9156 95.4718 24.9052 95.7154 24.9502C95.9589 24.9952 96.1893 25.0945 96.3895 25.2408C96.7923 25.5227 97.0992 25.922 97.269 26.3848C97.439 26.8364 97.4916 27.3242 97.4216 27.8018C97.3356 28.2646 97.1483 28.7022 96.8731 29.0831C96.598 29.464 96.2419 29.7786 95.8308 30.004C95.0427 30.4399 94.131 30.5947 93.2442 30.4434C92.3905 30.324 91.5856 29.9725 90.9162 29.4268C90.596 29.1568 90.3397 28.8184 90.166 28.4362C89.9997 28.0594 89.938 27.6443 89.9875 27.235C90.0376 26.8361 90.2264 26.4677 90.5204 26.195C90.6625 26.0606 90.8316 25.9583 91.0163 25.8951C91.201 25.8318 91.3971 25.8091 91.5913 25.8284C91.7774 25.8599 91.9548 25.9304 92.1121 26.0352C92.2694 26.14 92.403 26.2768 92.5044 26.4368C92.7011 26.7459 92.792 27.1111 92.763 27.4768C92.7387 27.8137 92.6359 28.1401 92.4629 28.4296C92.2899 28.7191 92.0516 28.9636 91.7672 29.1434C91.2416 29.4496 90.6331 29.5807 90.0289 29.5178C89.4942 29.4692 88.9758 29.307 88.508 29.042C87.6285 28.5506 87.1086 27.742 87.0543 27.027C87.0203 26.7534 87.0407 26.4758 87.1144 26.2102C87.1881 25.9446 87.3136 25.6964 87.4837 25.48C87.5716 25.3709 87.6744 25.2746 87.7889 25.194L87.9104 25.1186C87.7576 25.2249 87.6208 25.3527 87.5043 25.4982C87.1798 25.9281 87.0342 26.4679 87.0982 27.0036C87.1603 27.6952 87.6725 28.483 88.5364 28.9588C88.9956 29.2143 89.5034 29.3694 90.0263 29.4138C90.6126 29.4707 91.2017 29.3407 91.7103 29.042C91.98 28.8698 92.2057 28.6364 92.3692 28.3604C92.5327 28.0845 92.6295 27.7738 92.6518 27.4534C92.672 27.1122 92.5812 26.7737 92.3931 26.4888C92.3015 26.3439 92.1807 26.2199 92.0387 26.1245C91.8966 26.0291 91.7363 25.9646 91.568 25.935C91.3899 25.9181 91.2102 25.9397 91.0411 25.9985C90.872 26.0572 90.7174 26.1518 90.5876 26.2756C90.3117 26.5311 90.1371 26.8784 90.0962 27.2532C90.0495 27.6405 90.1085 28.0333 90.2669 28.3894C90.4325 28.7546 90.6784 29.0773 90.986 29.3332C91.6386 29.8619 92.4218 30.2025 93.2519 30.3186C94.1139 30.4653 94.9998 30.315 95.7662 29.8922C96.1595 29.676 96.5003 29.3747 96.7637 29.0101C97.0272 28.6454 97.2068 28.2265 97.2897 27.7836C97.3568 27.3288 97.3069 26.8642 97.1448 26.4342C96.9824 25.9988 96.693 25.6228 96.3145 25.3552C96.1317 25.2181 95.9207 25.1236 95.697 25.0787C95.4733 25.0337 95.2425 25.0393 95.0212 25.0952C94.8112 25.1708 94.6266 25.3041 94.4883 25.48C94.3492 25.6562 94.2487 25.86 94.1935 26.078C94.141 26.295 94.1296 26.5199 94.1598 26.741C94.1958 26.9609 94.2693 27.1729 94.3771 27.3676C94.6003 27.7537 94.9071 28.0842 95.2747 28.3348C95.9972 28.8303 96.8328 29.1335 97.7036 29.2162C98.5379 29.2961 99.3793 29.1832 100.163 28.886C100.915 28.6199 101.577 28.1491 102.078 27.5262C102.309 27.225 102.454 26.865 102.494 26.4862C102.518 26.1286 102.419 25.7737 102.215 25.48C102.121 25.3338 101.995 25.211 101.846 25.1209C101.698 25.0308 101.531 24.9758 101.359 24.96C101.192 24.9563 101.026 24.9866 100.871 25.0492C100.717 25.1117 100.576 25.2053 100.458 25.324C100.225 25.5524 100.072 25.8508 100.021 26.1742C99.9725 26.4854 99.9893 26.8034 100.07 27.1076C100.226 27.6773 100.547 28.1877 100.991 28.574C101.385 28.9232 101.859 29.1688 102.37 29.289C102.813 29.4014 103.277 29.4014 103.72 29.289C104.092 29.1946 104.443 29.0305 104.755 28.8054C105.195 28.4956 105.55 28.08 105.789 27.5964C105.851 27.4713 105.903 27.3418 105.945 27.209C105.968 27.1076 105.986 27.0634 105.986 27.0634Z" fill="#455A64"/>
<path d="M111.059 32.201C111.059 32.201 111.059 32.2167 111.025 32.24C110.991 32.2634 110.965 32.2973 110.911 32.3363C110.758 32.4517 110.59 32.5453 110.412 32.6145C110.128 32.7244 109.826 32.7757 109.522 32.7652C109.115 32.7538 108.721 32.6237 108.386 32.3909C107.979 32.1075 107.674 31.6987 107.517 31.226C107.418 30.963 107.397 30.6769 107.455 30.4018C107.486 30.2497 107.569 30.1129 107.688 30.0144C107.754 29.9641 107.832 29.9323 107.915 29.9223C107.997 29.9122 108.08 29.9243 108.156 29.9572C108.303 30.0294 108.42 30.1521 108.485 30.303C108.555 30.4483 108.594 30.6069 108.599 30.7684C108.599 31.2722 108.419 31.7592 108.092 32.141C107.765 32.5227 107.312 32.7737 106.816 32.8484C106.48 32.8957 106.137 32.859 105.818 32.7415C105.499 32.6241 105.214 32.4295 104.988 32.175C104.879 32.0503 104.799 31.9027 104.754 31.743C104.71 31.5833 104.701 31.4155 104.729 31.252C104.753 31.0902 104.827 30.9401 104.941 30.823C105.055 30.7058 105.202 30.6276 105.363 30.5994C105.515 30.5809 105.669 30.6018 105.811 30.66C105.952 30.7183 106.077 30.812 106.172 30.9322C106.344 31.1552 106.435 31.4303 106.431 31.7122C106.424 31.9642 106.361 32.2115 106.247 32.4363C106.134 32.661 105.972 32.8577 105.774 33.0123C105.455 33.2734 105.049 33.4026 104.638 33.3737C104.333 33.348 104.04 33.2432 103.787 33.0695C103.629 32.9607 103.492 32.8242 103.381 32.6665C103.341 32.6129 103.308 32.5543 103.283 32.4923C103.427 32.6976 103.607 32.874 103.816 33.0123C104.064 33.1735 104.349 33.2675 104.644 33.2853C105.033 33.3043 105.415 33.1753 105.714 32.9239C105.894 32.7783 106.041 32.5954 106.144 32.3876C106.247 32.1798 106.305 31.9521 106.312 31.72C106.319 31.4622 106.238 31.2097 106.082 31.005C105.999 30.9016 105.892 30.8211 105.769 30.771C105.647 30.721 105.514 30.7031 105.383 30.719C105.25 30.7464 105.129 30.8147 105.036 30.9143C104.944 31.014 104.884 31.1402 104.866 31.2754C104.844 31.4209 104.855 31.5694 104.898 31.7102C104.94 31.851 105.013 31.9805 105.112 32.0892C105.324 32.326 105.59 32.5067 105.888 32.6155C106.186 32.7243 106.505 32.7579 106.819 32.7133C107.283 32.6424 107.707 32.4069 108.014 32.0492C108.32 31.6915 108.489 31.2353 108.49 30.7632C108.494 30.6253 108.463 30.4885 108.4 30.366C108.336 30.2435 108.243 30.1395 108.128 30.0638C108.072 30.0388 108.01 30.0294 107.949 30.0368C107.888 30.0441 107.83 30.0678 107.781 30.1054C107.684 30.1878 107.617 30.3003 107.59 30.4252C107.535 30.6783 107.554 30.9419 107.644 31.1844C107.791 31.636 108.077 32.0286 108.462 32.3051C108.779 32.5325 109.156 32.6634 109.545 32.682C109.84 32.6979 110.136 32.6555 110.414 32.5573C110.644 32.4681 110.861 32.3483 111.059 32.201Z" fill="#455A64"/>
<path d="M91.8887 84.4429L113.637 84.8199L113.883 99.6945L91.3714 98.9301L91.8887 84.4429Z" fill="#455A64"/>
<path d="M91.8887 84.4427L103.146 75.7354L113.637 84.8197" fill="#263238"/>
<path d="M91.3714 98.9301C91.343 98.9041 93.133 97.0373 95.3627 94.7701C97.5924 92.5029 99.4237 90.6673 99.4496 90.6933C99.4755 90.7193 97.6907 92.5861 95.4584 94.8663C93.2261 97.1465 91.3973 98.9561 91.3714 98.9301Z" fill="#263238"/>
<path d="M113.883 99.6944C113.855 99.7178 112.204 97.8042 110.197 95.42C108.19 93.0358 106.589 91.0832 106.617 91.0598C106.646 91.0364 108.293 92.9474 110.301 95.3342C112.308 97.721 113.912 99.671 113.883 99.6944Z" fill="#263238"/>
<path d="M113.637 84.8199L102.504 93.3193L91.8887 84.4429" fill="#263238"/>
<path d="M92.9648 85.2826L93.0864 78.923H112.145L112.181 85.8858L102.507 93.2049L92.9648 85.2826Z" fill="#EBEBEB"/>
<path d="M97.745 85.9274C97.726 86.0176 97.6795 86.0644 97.6053 86.0678C97.5797 86.0656 97.555 86.0576 97.5329 86.0444C97.5108 86.0276 97.4934 86.0054 97.4821 85.9799C97.4708 85.9545 97.466 85.9266 97.4682 85.8988L97.8097 83.5276C97.8072 83.5113 97.8072 83.4946 97.8097 83.4782C97.8182 83.4525 97.8351 83.4303 97.8575 83.4152C97.88 83.4002 97.9069 83.3931 97.9338 83.395C97.9567 83.3946 97.9792 83.4009 97.9985 83.4132C98.0198 83.4231 98.038 83.4388 98.0508 83.4586C98.0636 83.4784 98.0706 83.5014 98.0709 83.525C97.864 85.0694 97.7553 85.8702 97.745 85.9274Z" fill="#263238"/>
<path d="M100.065 85.9535C100.052 86.0419 100.006 86.0861 99.9281 86.0861C99.8971 86.084 99.8672 86.0735 99.8416 86.0556C99.8161 86.0378 99.7959 86.0132 99.7833 85.9847L98.9348 83.9826C98.9348 84.0762 98.909 84.1829 98.8935 84.2999C98.7693 85.2541 98.6943 85.8001 98.671 85.9327C98.6477 86.0653 98.6063 86.0731 98.5287 86.0731C98.5027 86.0732 98.4773 86.065 98.4563 86.0497C98.4336 86.0332 98.4155 86.0112 98.4037 85.9857C98.3919 85.9602 98.3869 85.9321 98.3891 85.9041C98.6115 84.3284 98.7253 83.538 98.7253 83.5328C98.7299 83.5138 98.7369 83.4955 98.746 83.4782C98.7589 83.4563 98.7775 83.4384 98.7999 83.4264C98.8223 83.4145 98.8475 83.409 98.8728 83.4106C98.9008 83.4067 98.9294 83.411 98.9551 83.423C98.9808 83.435 99.0025 83.4542 99.0176 83.4782L99.8609 85.4361L100.132 83.5562C100.132 83.5353 100.138 83.5147 100.148 83.4964C100.157 83.473 100.173 83.453 100.194 83.4395C100.215 83.4259 100.24 83.4194 100.264 83.421C100.288 83.4209 100.311 83.4272 100.332 83.4392C100.352 83.4518 100.368 83.4695 100.38 83.4905C100.391 83.5114 100.397 83.535 100.396 83.5588C100.396 83.5978 100.383 83.6394 100.378 83.6836C100.195 85.0426 100.091 85.7992 100.065 85.9535Z" fill="#263238"/>
<path d="M103.467 85.9846C103.449 86.0782 103.402 86.125 103.33 86.125C103.304 86.1256 103.278 86.1173 103.257 86.1016C103.234 86.0855 103.216 86.0636 103.204 86.038C103.192 86.0124 103.187 85.9841 103.19 85.956L103.531 83.5874V83.538C103.54 83.512 103.558 83.4898 103.581 83.4747C103.604 83.4597 103.631 83.4527 103.658 83.4548C103.681 83.4547 103.703 83.46 103.723 83.4704C103.744 83.4803 103.762 83.4962 103.774 83.516C103.786 83.5358 103.793 83.5588 103.793 83.5822C103.575 85.13 103.467 85.9309 103.467 85.9846Z" fill="#263238"/>
<path d="M106.253 83.6212C106.252 83.6445 106.245 83.6671 106.232 83.6862C106.217 83.7067 106.198 83.7231 106.175 83.734C106.152 83.7449 106.128 83.7499 106.102 83.7486H105.326C105.126 85.1994 105.022 85.9517 105.014 86.0054C105.014 86.0054 105.014 86.0184 105.014 86.0262C105.01 86.0605 104.994 86.0921 104.968 86.1144C104.942 86.1368 104.908 86.148 104.874 86.1458C104.848 86.1464 104.822 86.1382 104.801 86.1224C104.779 86.1057 104.762 86.0836 104.75 86.0581C104.739 86.0326 104.734 86.0046 104.737 85.9768C104.737 85.9768 104.812 85.4386 104.959 84.4168C105.011 84.0658 105.042 83.8474 105.055 83.7538H104.323C104.297 83.7523 104.271 83.7479 104.245 83.7408C104.22 83.7349 104.197 83.7202 104.181 83.6994C104.165 83.6785 104.157 83.6528 104.157 83.6265C104.158 83.6 104.165 83.574 104.178 83.551C104.192 83.5294 104.211 83.5119 104.234 83.5004C104.256 83.489 104.282 83.484 104.307 83.486L106.118 83.5043C106.135 83.5008 106.153 83.5008 106.17 83.5043C106.193 83.5134 106.214 83.5294 106.229 83.5502C106.243 83.571 106.252 83.5957 106.253 83.6212Z" fill="#263238"/>
<path d="M106.638 83.4834L107.737 83.4964C107.759 83.4937 107.78 83.4937 107.802 83.4964C107.83 83.5048 107.855 83.5228 107.872 83.5475C107.888 83.5722 107.895 83.602 107.892 83.6316C107.896 83.6487 107.896 83.6665 107.892 83.6836C107.879 83.7092 107.859 83.7307 107.834 83.7462C107.81 83.7617 107.782 83.7706 107.753 83.772H106.765L106.633 84.7106H107.344C107.371 84.7107 107.397 84.716 107.422 84.7262C107.447 84.7366 107.468 84.7547 107.483 84.7781C107.497 84.8015 107.504 84.8288 107.502 84.8562C107.504 84.8717 107.504 84.8875 107.502 84.903C107.489 84.9298 107.468 84.9524 107.443 84.9684C107.418 84.9845 107.389 84.9933 107.36 84.994H106.604L106.48 85.8728H107.458C107.483 85.8718 107.507 85.8762 107.53 85.8858C107.557 85.8948 107.58 85.9125 107.596 85.9359C107.612 85.9594 107.62 85.9875 107.618 86.0158C107.621 86.0304 107.621 86.0454 107.618 86.06C107.607 86.0883 107.587 86.1125 107.562 86.1296C107.536 86.1468 107.506 86.156 107.476 86.1562H106.335C106.308 86.1561 106.281 86.149 106.258 86.1354C106.236 86.1185 106.218 86.0963 106.207 86.0709C106.196 86.0455 106.191 86.0176 106.193 85.9898C106.193 85.9742 106.303 85.1838 106.522 83.6186C106.524 83.6021 106.529 83.5862 106.537 83.5718C106.544 83.5492 106.557 83.529 106.575 83.5135C106.593 83.4979 106.615 83.4875 106.638 83.4834Z" fill="#263238"/>
<path d="M91.6973 89.7988C91.6973 89.7988 91.3714 93.1034 92.1681 93.0878C93.5597 93.0644 98.8934 91.6864 99.2685 92.7186C99.6436 93.7508 97.9053 94.718 97.9053 94.718C97.9053 94.718 99.6074 95.0404 98.7693 95.9322C97.9312 96.824 95.0729 101.218 93.2338 101.309C90.5902 101.439 87.1836 100.542 87.1836 100.542L88.5752 90.8596L91.6973 89.7988Z" fill="#FFBE9D"/>
<path d="M98.552 94.2292C98.4823 94.2912 98.406 94.3453 98.3244 94.3904C98.1744 94.4892 97.9519 94.6192 97.6725 94.7726C96.207 95.5685 94.6276 96.1316 92.9907 96.4418C92.6777 96.5016 92.4216 96.5406 92.2457 96.5588C92.1545 96.5758 92.0616 96.5819 91.9689 96.577C91.9689 96.5562 92.3543 96.4886 92.9726 96.3482C94.5855 95.985 96.1488 95.4271 97.6286 94.6868C98.1976 94.406 98.552 94.211 98.552 94.2292Z" fill="#EB996E"/>
<path d="M98.4046 96.5614C98.3515 96.6368 98.2889 96.705 98.2183 96.7642C98.0368 96.94 97.846 97.1057 97.6467 97.2608C96.3269 98.2948 94.7627 98.9667 93.1071 99.2108C92.8586 99.2494 92.6082 99.2737 92.357 99.2836C92.265 99.2949 92.1721 99.2949 92.0802 99.2836C92.0802 99.2602 92.4708 99.2316 93.0916 99.1198C94.717 98.8261 96.255 98.1656 97.5898 97.188C98.0993 96.811 98.389 96.5432 98.4046 96.5614Z" fill="#EB996E"/>
<path d="M113.718 89.7234C113.718 89.7234 114.015 92.4821 112.973 92.8435C111.659 93.3089 106.247 91.4421 105.87 92.4717C105.492 93.5013 107.235 94.4737 107.235 94.4737C107.235 94.4737 105.531 94.7961 106.369 95.6879C107.207 96.5797 110.065 100.971 111.904 101.062C113.718 101.118 115.532 100.993 117.321 100.688L116.563 90.6152L113.718 89.7234Z" fill="#FFBE9D"/>
<path d="M106.589 93.9926C106.589 93.9744 106.943 94.1668 107.51 94.4502C108.989 95.1905 110.553 95.7484 112.166 96.1116C112.786 96.252 113.174 96.317 113.169 96.3404C113.077 96.3453 112.984 96.3392 112.893 96.3222C112.717 96.3014 112.461 96.2624 112.148 96.2052C110.511 95.8918 108.933 95.3289 107.466 94.536C107.186 94.3826 106.964 94.2526 106.814 94.1538C106.732 94.1101 106.657 94.0559 106.589 93.9926Z" fill="#EB996E"/>
<path d="M106.886 96.3248C106.902 96.3066 107.186 96.5666 107.683 96.9384C108.326 97.4225 109.02 97.8349 109.752 98.1682C110.49 98.4959 111.264 98.735 112.057 98.8806C112.667 98.9924 113.05 99.0184 113.05 99.0418C112.964 99.0527 112.877 99.0527 112.792 99.0418C112.545 99.033 112.299 99.0095 112.054 98.9716C111.246 98.8504 110.458 98.6204 109.711 98.2878C108.966 97.9522 108.266 97.5232 107.629 97.0112C107.385 96.811 107.197 96.6446 107.072 96.5198C107.003 96.4624 106.94 96.397 106.886 96.3248Z" fill="#EB996E"/>
<path d="M59.3692 77.077C58.6235 77.1671 57.8697 77.1671 57.1239 77.077C57.8697 76.9869 58.6235 76.9869 59.3692 77.077Z" fill="#455A64"/>
<path d="M60.5616 73.489C60.6514 74.3785 60.6514 75.2748 60.5616 76.1644C60.4719 75.2748 60.4719 74.3785 60.5616 73.489Z" fill="#455A64"/>
<path d="M61.8213 76.9912C62.567 76.901 63.3208 76.901 64.0665 76.9912C63.3208 77.0813 62.567 77.0813 61.8213 76.9912Z" fill="#455A64"/>
<path d="M60.6392 80.5792C60.5496 79.6888 60.5496 78.7916 60.6392 77.9012C60.7289 78.7916 60.7289 79.6888 60.6392 80.5792Z" fill="#455A64"/>
<path d="M62.4551 79.04C62.424 79.0608 62.2197 78.8268 61.9998 78.52C61.8479 78.3438 61.7311 78.14 61.6558 77.9195C61.6868 77.8987 61.8886 78.13 62.111 78.4394C62.2625 78.6159 62.3793 78.8198 62.4551 79.04Z" fill="#455A64"/>
<path d="M62.3387 74.971C62.3671 74.9944 62.2041 75.231 61.9765 75.5066C61.7489 75.7822 61.5394 75.9772 61.5109 75.9538C61.4825 75.9304 61.6454 75.6938 61.873 75.4182C62.1007 75.1426 62.3205 74.9476 62.3387 74.971Z" fill="#455A64"/>
<path d="M59.7753 76.0084C59.7494 76.0344 59.5528 75.8836 59.333 75.6705C59.1131 75.4573 58.9605 75.2623 58.9864 75.2363C59.0122 75.2103 59.2114 75.3611 59.4287 75.5743C59.646 75.7875 59.8012 75.9798 59.7753 76.0084Z" fill="#455A64"/>
<path d="M59.6744 77.7998C59.7029 77.8232 59.5606 78.0598 59.3511 78.3198C59.1416 78.5798 58.9528 78.7852 58.9217 78.7618C58.9929 78.5681 59.103 78.3911 59.2451 78.2418C59.452 77.9766 59.646 77.7764 59.6744 77.7998Z" fill="#455A64"/>
<path d="M132.241 64.3344C131.745 64.4245 131.237 64.4245 130.74 64.3344C131.237 64.2442 131.745 64.2442 132.241 64.3344Z" fill="#455A64"/>
<path d="M133.04 62.2804C133.13 62.7869 133.13 63.3053 133.04 63.8118C132.95 63.3053 132.95 62.7869 133.04 62.2804Z" fill="#455A64"/>
<path d="M133.888 64.2851C134.385 64.1949 134.894 64.1949 135.391 64.2851C134.894 64.3752 134.385 64.3752 133.888 64.2851Z" fill="#455A64"/>
<path d="M133.092 66.3364C133.002 65.8299 133.002 65.3115 133.092 64.805C133.181 65.3115 133.181 65.8299 133.092 66.3364Z" fill="#455A64"/>
<path d="M134.305 65.4576C134.276 65.481 134.134 65.3562 133.987 65.1794C133.839 65.0026 133.744 64.8388 133.772 64.8154C133.8 64.792 133.943 64.9142 134.09 65.091C134.238 65.2678 134.333 65.4342 134.305 65.4576Z" fill="#455A64"/>
<path d="M134.248 63.128C134.274 63.154 134.17 63.3022 134.018 63.4582C133.865 63.6142 133.72 63.7182 133.694 63.6896C133.669 63.661 133.769 63.518 133.922 63.362C134.075 63.206 134.209 63.102 134.248 63.128Z" fill="#455A64"/>
<path d="M132.512 63.7208C132.489 63.7494 132.352 63.674 132.207 63.5544C132.062 63.4348 131.961 63.31 131.985 63.2814C132.008 63.2528 132.148 63.3282 132.292 63.4478C132.437 63.5674 132.538 63.7 132.512 63.7208Z" fill="#455A64"/>
<path d="M132.437 64.7399C132.466 64.7659 132.375 64.9089 132.236 65.0623C132.096 65.2157 131.961 65.3223 131.936 65.2963C131.91 65.2703 131.998 65.1247 132.137 64.9713C132.277 64.8179 132.419 64.7217 132.437 64.7399Z" fill="#455A64"/>
<path d="M142.849 62.5793L142.921 62.7587C143.051 63.0692 143.299 63.315 143.609 63.4425L143.801 63.5205L143.617 63.5959C143.461 63.6595 143.319 63.7539 143.2 63.8736C143.081 63.9933 142.987 64.1358 142.924 64.2927L142.872 64.4227L142.794 64.2589C142.652 63.9626 142.401 63.7333 142.093 63.6193L141.925 63.5595L142.145 63.4529C142.421 63.3187 142.638 63.0874 142.756 62.8029L142.849 62.5793Z" fill="#455A64"/>
<path d="M70.6729 65.8528L70.7453 66.0296C70.809 66.1834 70.9023 66.3231 71.02 66.4404C71.1376 66.5578 71.2773 66.6506 71.4308 66.7134L71.6248 66.7914L71.4386 66.8668C71.2831 66.9309 71.1419 67.0255 71.0233 67.1452C70.9047 67.2648 70.8111 67.4071 70.7479 67.5636L70.6962 67.6936L70.6186 67.5298C70.4769 67.2334 70.2252 67.0047 69.9176 66.8928L69.7495 66.8304L69.9693 66.7238C70.244 66.588 70.4607 66.3572 70.5798 66.0738L70.6729 65.8528Z" fill="#455A64"/>
<path d="M61.5135 90.7192L61.5497 90.8076C61.6149 90.9631 61.7385 91.0865 61.8938 91.1508L61.9895 91.1898L61.8963 91.2262C61.8184 91.2582 61.7477 91.3055 61.6882 91.3653C61.6287 91.4251 61.5816 91.4963 61.5497 91.5746L61.5239 91.6396L61.4851 91.559C61.4145 91.4108 61.2892 91.2961 61.1359 91.2392L61.0505 91.208L61.1617 91.156C61.2988 91.0877 61.407 90.9724 61.467 90.831L61.5135 90.7192Z" fill="#455A64"/>
<path d="M124.222 54.8808L124.294 55.0576C124.358 55.2114 124.451 55.3511 124.569 55.4685C124.687 55.5858 124.826 55.6786 124.98 55.7414L125.174 55.8194L124.988 55.8948C124.832 55.9589 124.691 56.0535 124.573 56.1732C124.454 56.2928 124.36 56.4351 124.297 56.5916L124.245 56.7216L124.168 56.5578C124.026 56.2614 123.774 56.0327 123.467 55.9208L123.299 55.8584L123.518 55.7518C123.794 55.6167 124.011 55.3857 124.129 55.1018L124.222 54.8808Z" fill="#455A64"/>
</svg>
